# xmcd
#
# Track frame offsets: 
#        150
#        15496
#        30232
#        44244
#        59939
#        75623
#        99871
#        115248
#        131778
#        151217
#        187787
#        214123
#
# Disc length: 3622 seconds
#
# Revision: 0
# Processed by: cddbd v1.4PL0 Copyright (c) Steve Scherf et al.
# Submitted via: ExactAudioCopy v0.90b4
#
DISCID=9a0e240c
DTITLE=Peter Kern - Bluespower
DYEAR=2003
DGENRE=Blues
TTITLE0=Bluespower
TTITLE1=It Feels Like I'm Complete
TTITLE2=I Feel Bad
TTITLE3=My Dreams Are Coming True Someday
TTITLE4=Don't Give Me Back My Ring
TTITLE5=I'm A Bluesman
TTITLE6=The Richest Man Around
TTITLE7=True Love
TTITLE8=Army Blues
TTITLE9=Fuss And Fight
TTITLE10=I Gotta Go My Way
TTITLE11=Lazy To The Bone
EXTD=
EXTT0=
EXTT1=It Feels like I'm Complete
EXTT2=
EXTT3=
EXTT4=
EXTT5=
EXTT6=
EXTT7=
EXTT8=
EXTT9=
EXTT10=
EXTT11=
PLAYORDER=
